<svg width="18" height="18" viewBox="0 0 18 18" fill="none" xmlns="http://www.w3.org/2000/svg">
<path fill-rule="evenodd" clip-rule="evenodd" d="M7.66455 3C7.25034 3 6.91455 3.33579 6.91455 3.75C6.91455 4.16421 7.25034 4.5 7.66455 4.5H16.1646C16.5788 4.5 16.9146 4.16421 16.9146 3.75C16.9146 3.33579 16.5788 3 16.1646 3H7.66455ZM9.66455 8.45321C9.25034 8.45321 8.91455 8.789 8.91455 9.20321C8.91455 9.61743 9.25034 9.95321 9.66455 9.95321H16.1646C16.5788 9.95321 16.9146 9.61743 16.9146 9.20321C16.9146 8.789 16.5788 8.45321 16.1646 8.45321H9.66455ZM10.9146 14.75C10.9146 14.3358 11.2503 14 11.6646 14H16.1646C16.5788 14 16.9146 14.3358 16.9146 14.75C16.9146 15.1642 16.5788 15.5 16.1646 15.5H11.6646C11.2503 15.5 10.9146 15.1642 10.9146 14.75ZM5.89472 13.2356C6.03509 13.3625 6.03509 13.5666 5.89472 13.6892L3.74817 15.5335C3.61286 15.6604 3.38714 15.6604 3.25151 15.5335L1.10528 13.6892C0.964908 13.5668 0.964908 13.3625 1.10528 13.2356C1.24058 13.113 1.46662 13.113 1.60699 13.2356L3.14624 14.5355L3.14371 3.62582C3.14371 3.4489 3.30431 3.30829 3.5 3.30829C3.69569 3.30829 3.85123 3.4489 3.85155 3.62582L3.85408 14.5355L5.39807 13.2356C5.53338 13.113 5.7591 13.113 5.89472 13.2356Z" fill="white"/>
<path d="M5.89472 13.6892L6.05765 13.8788L6.05919 13.8775L5.89472 13.6892ZM5.89472 13.2356L6.06238 13.0501H6.06238L5.89472 13.2356ZM3.74817 15.5335L3.58509 15.3437L3.57715 15.3511L3.74817 15.5335ZM3.25151 15.5335L3.42247 15.3508L3.41445 15.3439L3.25151 15.5335ZM1.10528 13.6892L0.941022 13.8776L0.942338 13.8788L1.10528 13.6892ZM1.10528 13.2356L1.27293 13.421L1.27314 13.4209L1.10528 13.2356ZM1.60699 13.2356L1.4425 13.4239L1.44569 13.4266L1.60699 13.2356ZM3.14624 14.5355L2.98494 14.7265L3.39636 15.0739L3.39624 14.5354L3.14624 14.5355ZM3.14371 3.62582H2.89371V3.62588L3.14371 3.62582ZM3.85155 3.62582L4.10155 3.62576L4.10155 3.62537L3.85155 3.62582ZM3.85408 14.5355L3.60408 14.5355L3.6042 15.0726L4.01509 14.7267L3.85408 14.5355ZM5.39807 13.2356L5.55918 13.427L5.56594 13.4209L5.39807 13.2356ZM7.16455 3.75C7.16455 3.47386 7.38841 3.25 7.66455 3.25V2.75C7.11227 2.75 6.66455 3.19772 6.66455 3.75H7.16455ZM7.66455 4.25C7.38841 4.25 7.16455 4.02614 7.16455 3.75H6.66455C6.66455 4.30228 7.11227 4.75 7.66455 4.75V4.25ZM16.1646 4.25H7.66455V4.75H16.1646V4.25ZM16.6646 3.75C16.6646 4.02614 16.4407 4.25 16.1646 4.25V4.75C16.7168 4.75 17.1646 4.30228 17.1646 3.75H16.6646ZM16.1646 3.25C16.4407 3.25 16.6646 3.47386 16.6646 3.75H17.1646C17.1646 3.19772 16.7168 2.75 16.1646 2.75V3.25ZM7.66455 3.25H16.1646V2.75H7.66455V3.25ZM9.16455 9.20321C9.16455 8.92707 9.38841 8.70321 9.66455 8.70321V8.20321C9.11227 8.20321 8.66455 8.65093 8.66455 9.20321H9.16455ZM9.66455 9.70321C9.38841 9.70321 9.16455 9.47935 9.16455 9.20321H8.66455C8.66455 9.7555 9.11227 10.2032 9.66455 10.2032V9.70321ZM16.1646 9.70321H9.66455V10.2032H16.1646V9.70321ZM16.6646 9.20321C16.6646 9.47935 16.4407 9.70321 16.1646 9.70321V10.2032C16.7168 10.2032 17.1646 9.7555 17.1646 9.20321H16.6646ZM16.1646 8.70321C16.4407 8.70321 16.6646 8.92707 16.6646 9.20321H17.1646C17.1646 8.65093 16.7168 8.20321 16.1646 8.20321V8.70321ZM9.66455 8.70321H16.1646V8.20321H9.66455V8.70321ZM11.6646 13.75C11.1123 13.75 10.6646 14.1977 10.6646 14.75H11.1646C11.1646 14.4739 11.3884 14.25 11.6646 14.25V13.75ZM16.1646 13.75H11.6646V14.25H16.1646V13.75ZM17.1646 14.75C17.1646 14.1977 16.7168 13.75 16.1646 13.75V14.25C16.4407 14.25 16.6646 14.4739 16.6646 14.75H17.1646ZM16.1646 15.75C16.7168 15.75 17.1646 15.3023 17.1646 14.75H16.6646C16.6646 15.0261 16.4407 15.25 16.1646 15.25V15.75ZM11.6646 15.75H16.1646V15.25H11.6646V15.75ZM10.6646 14.75C10.6646 15.3023 11.1123 15.75 11.6646 15.75V15.25C11.3884 15.25 11.1646 15.0261 11.1646 14.75H10.6646ZM6.05919 13.8775C6.31553 13.6535 6.31062 13.2746 6.06238 13.0501L5.72707 13.421C5.74644 13.4386 5.75 13.4546 5.75 13.464C5.75 13.4731 5.74682 13.4864 5.73026 13.5009L6.05919 13.8775ZM3.91109 15.7231L6.05765 13.8788L5.7318 13.4995L3.58525 15.3439L3.91109 15.7231ZM3.08071 15.7161C3.31233 15.9328 3.68759 15.9331 3.91919 15.7159L3.57715 15.3511C3.53813 15.3877 3.46194 15.388 3.42232 15.351L3.08071 15.7161ZM0.942338 13.8788L3.08858 15.7231L3.41445 15.3439L1.26821 13.4996L0.942338 13.8788ZM0.93762 13.0501C0.689516 13.2744 0.684269 13.6539 0.941026 13.8776L1.26952 13.5007C1.25322 13.4865 1.25 13.4733 1.25 13.4641C1.25 13.4546 1.25362 13.4385 1.27293 13.421L0.93762 13.0501ZM1.77146 13.0473C1.53866 12.844 1.16969 12.8399 0.937405 13.0503L1.27314 13.4209C1.31148 13.3861 1.39459 13.382 1.44253 13.4239L1.77146 13.0473ZM3.30754 14.3445L1.76829 13.0446L1.44569 13.4266L2.98494 14.7265L3.30754 14.3445ZM2.89371 3.62588L2.89624 14.5355L3.39624 14.5354L3.39371 3.62576L2.89371 3.62588ZM3.5 3.05829C3.19544 3.05829 2.89371 3.28334 2.89371 3.62582H3.39371C3.39371 3.61653 3.39722 3.60293 3.4143 3.5878C3.43206 3.57206 3.46175 3.55829 3.5 3.55829V3.05829ZM4.10155 3.62537C4.10095 3.28771 3.80957 3.05829 3.5 3.05829V3.55829C3.53784 3.55829 3.56541 3.57173 3.58144 3.58621C3.59689 3.60017 3.60153 3.61409 3.60155 3.62626L4.10155 3.62537ZM4.10408 14.5354L4.10155 3.62576L3.60155 3.62588L3.60408 14.5355L4.10408 14.5354ZM5.23706 13.0444L3.69307 14.3442L4.01509 14.7267L5.55908 13.4268L5.23706 13.0444ZM6.06238 13.0501C5.83167 12.8416 5.46088 12.8413 5.2302 13.0503L5.56594 13.4209C5.60587 13.3847 5.68654 13.3844 5.72707 13.421L6.06238 13.0501Z" fill="white"/>
</svg>
