<svg width="20" height="18" viewBox="0 0 20 18" fill="none" xmlns="http://www.w3.org/2000/svg">
<path fill-rule="evenodd" clip-rule="evenodd" d="M8.58069 1.86795C9.22518 0.710684 10.8562 0.710684 11.5007 1.86795L11.5008 1.86802L18.8609 15.0888L18.861 15.0889C19.4823 16.2047 18.7253 17.6646 17.4009 17.6646H2.68047C1.3561 17.6646 0.599092 16.2047 1.22041 15.0889L1.22046 15.0888L8.58064 1.86802L8.58069 1.86795ZM9.57915 2.424L2.21896 15.6448L2.21892 15.6449C1.98705 16.0612 2.29835 16.5217 2.68047 16.5217H17.4009C17.7831 16.5217 18.0943 16.0612 17.8625 15.6449L17.8624 15.6448L10.5023 2.424C10.2935 2.04914 9.78791 2.04914 9.57915 2.424ZM10.0417 6.27547C10.5129 6.27547 10.894 6.68697 10.8801 7.18223L10.7415 12.2659C10.7311 12.6665 10.4193 12.9833 10.0382 12.9833C9.65711 12.9833 9.34529 12.6628 9.3349 12.2659L9.19978 7.18223C9.18938 6.68697 9.56703 6.27547 10.0417 6.27547ZM9.15625 14.5527C9.15625 15.0589 9.54775 15.4704 10.0293 15.4704C10.5109 15.4704 10.9024 15.0589 10.9024 14.5527C10.9024 14.0465 10.5109 13.635 10.0293 13.635C9.54775 13.635 9.15625 14.0465 9.15625 14.5527Z" fill="#EC8532"/>
</svg>
